<svg width="50" height="50" viewBox="0 0 50 50" fill="none" xmlns="http://www.w3.org/2000/svg">
<path d="M25 50C38.8071 50 50 38.8071 50 25C50 11.1929 38.8071 0 25 0C11.1929 0 0 11.1929 0 25C0 38.8071 11.1929 50 25 50Z" fill="white"/>
<path d="M25 49.5C38.531 49.5 49.5 38.531 49.5 25C49.5 11.469 38.531 0.5 25 0.5C11.469 0.5 0.5 11.469 0.5 25C0.5 38.531 11.469 49.5 25 49.5Z" stroke="#E6E6E6"/>
<path d="M30.4409 21.632H26.6139V18.839C26.6139 17.983 27.4999 17.784 27.9139 17.784H30.3859V14.015L27.5519 14C23.6869 14 22.8039 16.81 22.8039 18.612V21.632H20.0039V25.516H22.8039V36H26.6139V25.516H29.8499L30.4409 21.632Z" fill="#3B5998"/>
</svg>
