<svg width="50" height="50" viewBox="0 0 50 50" fill="none" xmlns="http://www.w3.org/2000/svg">
<path d="M25 50C38.8071 50 50 38.8071 50 25C50 11.1929 38.8071 0 25 0C11.1929 0 0 11.1929 0 25C0 38.8071 11.1929 50 25 50Z" fill="white"/>
<path d="M25 49.5C38.531 49.5 49.5 38.531 49.5 25C49.5 11.469 38.531 0.5 25 0.5C11.469 0.5 0.5 11.469 0.5 25C0.5 38.531 11.469 49.5 25 49.5Z" stroke="#E6E6E6"/>
<path d="M18.877 27.2949L18.111 30.1529L15.311 30.2119C14.4643 28.6351 14.0145 26.8757 14.0003 25.086C13.9862 23.2962 14.4083 21.53 15.23 19.9399L17.722 20.3969L18.815 22.8729C18.3242 24.3091 18.3461 25.8711 18.877 27.2929V27.2949Z" fill="#FBBB00"/>
<path d="M35.8072 22.9448C36.1801 24.9061 36.0122 26.932 35.3214 28.8051C34.6307 30.6783 33.4432 32.3282 31.8862 33.5778L28.7472 33.4178L28.3032 30.6448C29.5994 29.8851 30.5953 28.7031 31.1242 27.2968H25.2422V22.9448H35.8082H35.8072Z" fill="#518EF8"/>
<path d="M31.8875 33.5779C30.629 34.5887 29.1634 35.3101 27.5948 35.6909C26.0262 36.0717 24.393 36.1026 22.8111 35.7815C21.2292 35.4603 19.7373 34.795 18.4414 33.8326C17.1455 32.8702 16.0773 31.6344 15.3125 30.2129L18.8775 27.2949C19.2122 28.1871 19.7377 28.9954 20.4173 29.6633C21.097 30.3312 21.9143 30.8425 22.8122 31.1616C23.71 31.4807 24.6668 31.5997 25.6155 31.5105C26.5641 31.4213 27.4819 31.1258 28.3045 30.6449L31.8875 33.5779Z" fill="#28B446"/>
<path d="M32.0205 16.5319L28.4575 19.4499C27.6227 18.9299 26.6814 18.6048 25.7036 18.4989C24.7258 18.3929 23.7368 18.5088 22.81 18.838C21.8832 19.1671 21.0425 19.701 20.3506 20.3999C19.6587 21.0989 19.1333 21.9448 18.8135 22.8749L15.2305 19.9409C15.9862 18.4815 17.0592 17.21 18.3708 16.2199C19.6824 15.2297 21.1992 14.546 22.8098 14.219C24.4203 13.892 26.0837 13.93 27.6776 14.3303C29.2715 14.7305 30.7555 15.4828 32.0205 16.5319Z" fill="#F14336"/>
</svg>
