<svg width="50" height="50" viewBox="0 0 50 50" fill="none" xmlns="http://www.w3.org/2000/svg">
<path d="M25 50C38.8071 50 50 38.8071 50 25C50 11.1929 38.8071 0 25 0C11.1929 0 0 11.1929 0 25C0 38.8071 11.1929 50 25 50Z" fill="white"/>
<path d="M25 49.5C38.531 49.5 49.5 38.531 49.5 25C49.5 11.469 38.531 0.5 25 0.5C11.469 0.5 0.5 11.469 0.5 25C0.5 38.531 11.469 49.5 25 49.5Z" stroke="#E6E6E6"/>
<path d="M36 17.3141C35.2119 17.7161 34.3592 17.9764 33.481 18.0831C34.3823 17.426 35.0461 16.4944 35.373 15.4281C34.5188 15.9898 33.5523 16.3584 32.541 16.5081C32.1328 16.0374 31.6289 15.6591 31.063 15.3986C30.497 15.138 29.882 15.0011 29.259 14.9971C28.0095 15.045 26.8299 15.5865 25.9791 16.5028C25.1282 17.4191 24.6754 18.6354 24.72 19.8851C24.7206 20.2512 24.7598 20.6162 24.837 20.9741C22.9601 20.8885 21.1251 20.3897 19.4633 19.5131C17.8014 18.6365 16.3535 17.4038 15.223 15.9031C14.6534 16.9688 14.479 18.2017 14.7309 19.3835C14.9827 20.5654 15.6444 21.6201 16.599 22.3611C15.8924 22.439 15.1829 22.2417 14.618 21.8101C14.5601 22.8878 14.8771 23.9523 15.5151 24.8227C16.1531 25.6932 17.0729 26.3159 18.118 26.5851C17.5167 26.819 16.8601 26.8722 16.229 26.7381C16.4551 27.6556 16.9726 28.475 17.7039 29.0735C18.4352 29.6719 19.3409 30.017 20.285 30.0571C19.4797 30.8786 18.4872 31.4926 17.3925 31.8463C16.2979 32.2001 15.1338 32.283 14 32.0881C16.1039 33.4884 18.5727 34.2402 21.1 34.2501C28.422 34.2501 34.109 27.8601 33.8 19.9761C33.8 19.9671 33.8 19.9581 33.8 19.9491C33.8 19.9401 33.8 19.9071 33.8 19.8881C33.8 19.8691 33.8 19.8391 33.8 19.8141C34.6969 19.1404 35.4458 18.2894 36 17.3141Z" fill="#38A1F3"/>
</svg>
